# xmcd CD database file
#
# Track frame offsets:
#	183
#	10573
#	19018
#	29703
#	44893
#	57113
#	69553
#	80600
#	92488
#	103465
#	114213
#	127415
#	137683
#	150363
#	158973
#	170378
#	178338
#	191253
#	204203
#	215280
#
# Disc length: 3021 seconds
#
# Revision: 0
# Processed by: cddbd v1.5.2PL0 Copyright (c) Steve Scherf et al.
# Submitted via: CDex 1.70beta2
#
DISCID=120bcb14
DTITLE=chuck jackson - any day now
DYEAR=1992
DGENRE=Blues
TTITLE0=I Don't Want To Cry
TTITLE1=Somebody New
TTITLE2=The Breaking Point
TTITLE3=Any Day Now
TTITLE4=I Keep Forgettin'
TTITLE5=Who's Gonna Pick Up The Pieces
TTITLE6=Gettin' Ready For The Heartbreak
TTITLE7=Tell Him I'm Not Home
TTITLE8=Any Other Way
TTITLE9=Hand It Over
TTITLE10=Look Over Your Shoulder
TTITLE11=This Broken Heart (That You Gave Me)
TTITLE12=Good Things Come To Those Who Wait 
TTITLE13=I've Got To Be Strong
TTITLE14=Two Stupid Feet
TTITLE15=Make The Night Just A Little Longer
TTITLE16=I Just Don't Know What To Do With Myself
TTITLE17=Castanets
TTITLE18=Millionaire
TTITLE19=What's With This Loneliness
EXTD=YEAR: 1992
EXTT0=
EXTT1=
EXTT2=
EXTT3=
EXTT4=
EXTT5=
EXTT6=
EXTT7=
EXTT8=
EXTT9=
EXTT10=
EXTT11=
EXTT12=
EXTT13=
EXTT14=
EXTT15=
EXTT16=
EXTT17=
EXTT18=
EXTT19=
PLAYORDER=
